<svg xmlns="http://www.w3.org/2000/svg" width="206" height="54" viewBox="0 0 206 54" fill="none"><path d="M36.6031 12.5958V39.3438H42.7398V9.38818H39.8147C38.044 9.38818 36.6118 10.8225 36.6118 12.5958" fill="#212020"></path><path d="M36.6031 2.70366V6.53721H40.0924C41.5507 6.53721 42.7398 5.35498 42.7398 3.88589V0.0610352H39.2505C37.7923 0.0610352 36.6031 1.25196 36.6031 2.71236" fill="#F9AB19"></path><path d="M93.4391 12.5958V39.3438H99.5758V9.38818H96.6506C94.8799 9.38818 93.4478 10.8225 93.4478 12.5958" fill="#212020"></path><path d="M93.4391 2.70366V6.53721H96.9284C98.3866 6.53721 99.5758 5.35498 99.5758 3.88589V0.0610352H96.0865C94.6282 0.0610352 93.4391 1.25196 93.4391 2.71236" fill="#F9AB19"></path><path d="M127.768 12.5958V39.3438H133.905V9.38818H130.98C129.209 9.38818 127.777 10.8225 127.777 12.5958" fill="#212020"></path><path d="M127.768 2.70366V6.53721H131.257C132.716 6.53721 133.905 5.35498 133.905 3.88589V0.0610352H130.415C128.957 0.0610352 127.768 1.25196 127.768 2.71236" fill="#F9AB19"></path><path d="M170.126 14.8126V0H166.836C165.317 0 164.085 1.23439 164.085 2.75563V12.2743C161.134 10.2489 158.209 9.6056 158.209 9.6056C157.115 9.38828 156.03 9.28397 154.98 9.28397C152.08 9.28397 149.346 10.1011 146.873 11.7267C143.288 14.0737 141.092 17.4118 140.354 21.6626C139.66 25.6439 140.406 29.3297 142.567 32.6156C144.911 36.1797 148.235 38.3616 152.445 39.1004C153.4 39.2656 154.346 39.3525 155.275 39.3525C158.191 39.3525 160.934 38.518 163.416 36.8751C166.958 34.5367 169.128 31.2073 169.874 26.9739C170.031 26.0699 170.109 25.0963 170.117 23.9749C170.117 23.7923 170.117 23.6185 170.117 23.4359C170.117 23.2621 170.117 23.0882 170.109 22.9144C170.109 22.9231 170.126 22.9404 170.135 22.9491C170.135 20.4282 170.135 17.2727 170.135 14.8039M155.153 33.3892H155.101C150.075 33.3892 146.117 29.4166 146.1 24.34C146.1 21.8625 147.02 19.5589 148.713 17.8551C150.397 16.16 152.662 15.2299 155.11 15.2212H155.136C160.144 15.2212 164.085 19.2112 164.093 24.2965C164.111 29.3645 160.179 33.3632 155.153 33.3892Z" fill="#212020"></path><path d="M30.4316 15.0126V0H27.0985C25.5622 0 24.3122 1.25177 24.3122 2.79041V12.4308C21.3264 10.3793 18.3578 9.7273 18.3578 9.7273C17.2468 9.50998 16.1445 9.39697 15.0855 9.39697C12.143 9.39697 9.38282 10.2315 6.86565 11.8657C3.22878 14.2563 0.998044 17.6378 0.251573 21.9495C-0.451499 25.9829 0.303652 29.7209 2.49967 33.0589C4.87796 36.6751 8.24576 38.8831 12.5163 39.6307C13.4797 39.7959 14.4432 39.8828 15.3806 39.8828C18.3318 39.8828 21.1094 39.0396 23.6352 37.3706C27.22 34.9974 29.4247 31.6246 30.1799 27.339C30.3448 26.4263 30.4229 25.4353 30.4229 24.2965C30.4229 24.114 30.4229 23.9314 30.4229 23.7489C30.4229 23.575 30.4229 23.4012 30.4055 23.2273C30.4055 23.236 30.4229 23.2534 30.4316 23.2621C30.4316 20.7151 30.4316 17.5074 30.4316 15.0126ZM15.2504 33.85H15.1984C10.1033 33.85 6.09314 29.8252 6.07578 24.679C6.07578 22.1668 7.00453 19.8371 8.72315 18.1072C10.4244 16.3947 12.7246 15.4472 15.207 15.4385H15.2331C20.3108 15.4385 24.3036 19.4807 24.3122 24.6355C24.3296 29.773 20.3455 33.8239 15.2504 33.85Z" fill="#212020"></path><path d="M205.818 20.3411C205.67 19.7935 205.505 19.2545 205.314 18.7329C205.219 18.4374 205.106 18.1505 204.976 17.8636C204.75 17.3421 204.498 16.8553 204.229 16.438C201.617 12.0655 196.851 9.24902 191.357 9.24902C182.938 9.24902 176.332 15.8556 176.323 24.279C176.323 28.3385 177.868 32.1373 180.689 34.9625C183.51 37.7877 187.303 39.3524 191.366 39.3524C194.056 39.3524 196.617 38.6743 198.856 37.3965C199.186 37.2052 199.681 36.8314 200.211 36.3968C201.86 35.0407 201.764 32.485 200.02 31.2593L198.475 30.1727L197.633 30.9725C195.957 32.5633 193.735 33.4412 191.374 33.4499H191.348C188.909 33.4499 186.635 32.5111 184.951 30.7986C184.474 30.3118 184.066 29.7815 183.71 29.2165C183.71 29.2165 183.693 29.1817 183.684 29.173C183.215 28.4081 182.859 27.5822 182.634 26.7043H182.677C181.349 21.9319 184.092 18.8199 184.092 18.8199C185.724 16.5945 188.345 15.1775 191.348 15.1689H191.374C195.272 15.1689 198.622 17.5942 199.898 21.1408H187.599C185.993 21.1408 184.691 22.4361 184.682 24.0443C184.682 24.8614 184.778 25.7568 185.047 26.713H200.922C204.238 26.713 206.703 23.5662 205.835 20.3585" fill="#212020"></path><path d="M122.126 31.9551L120.72 32.3637C120.564 32.4071 120.399 32.4593 120.243 32.5027C119.921 32.5984 119.618 32.694 119.323 32.7635C118.394 32.9982 117.543 33.1112 116.727 33.1112C116.198 33.1112 115.686 33.0591 115.182 32.9635C113.403 32.6158 112.379 31.5813 112.04 29.8167C111.927 29.2255 111.875 28.5736 111.867 27.8695C111.867 24.0359 111.867 19.3592 111.858 14.6302H117.873C119.913 14.6302 121.571 12.9699 121.571 10.9271V8.52786H111.858V0.147949H109.462C107.422 0.147949 105.765 1.80828 105.765 3.8511V8.00629C105.765 14.6476 105.765 22.2886 105.765 27.9564C105.765 29.8775 106.06 31.5205 106.676 32.9809C107.882 35.8495 110.061 37.7532 113.151 38.6399C114.262 38.9615 115.425 39.118 116.701 39.118C117.222 39.118 117.752 39.0919 118.324 39.0398C118.776 38.9963 119.479 38.8311 120.225 38.6312C122.144 38.1096 123.272 36.119 122.742 34.1979L122.117 31.9464L122.126 31.9551Z" fill="#212020"></path><path fill-rule="evenodd" clip-rule="evenodd" d="M81.2786 17.9071C81.2786 16.4901 80.1415 15.334 78.7267 15.334H57.4436C56.0461 15.334 54.8917 16.4901 54.8917 17.9071V30.6943C54.8917 32.0938 56.0461 33.25 57.4436 33.25H75.3328V39.222H57.4436C52.7651 39.222 48.9286 35.3797 48.9286 30.6943V17.9071C48.9286 13.2043 52.7651 9.37939 57.4436 9.37939H78.7267C83.4051 9.37939 87.2417 13.2043 87.2417 17.9071V45.4721C87.2417 50.1576 83.4051 53.9998 78.7267 53.9998H60.8548V48.0278H78.7267C80.1415 48.0278 81.2786 46.8891 81.2786 45.4721V17.9071Z" fill="#F5A71C"></path></svg>