<?xml version="1.0" encoding="utf-8"?>
<!-- Generator: Adobe Illustrator 16.0.0, SVG Export Plug-In . SVG Version: 6.00 Build 0)  -->
<!DOCTYPE svg PUBLIC "-//W3C//DTD SVG 1.1//EN" "http://www.w3.org/Graphics/SVG/1.1/DTD/svg11.dtd">
<svg version="1.1" id="Layer_1" xmlns="http://www.w3.org/2000/svg" xmlns:xlink="http://www.w3.org/1999/xlink" x="0px" y="0px"
	 width="612px" height="240px" viewBox="0 0 612 240" enable-background="new 0 0 612 240" xml:space="preserve">
<g>
	<g>
		<g enable-background="new    ">
			<defs>
				<polygon id="SVGID_3_" enable-background="new    " points="93.649,372.851 -47.48,-27.914 149.956,16.59 215.497,147.185 				
					"/>
			</defs>
			<clipPath id="SVGID_1_">
				<use xlink:href="#SVGID_3_"  overflow="visible"/>
			</clipPath>
			<g clip-path="url(#SVGID_1_)">
				<path fill="#F7912F" d="M185.726,190.583c-5.647,9.684-13.271,17.375-22.596,22.446c-10.579,5.753-23.186,8.049-37.033,5.985
					c-15.417-2.299-31.73-9.894-47.184-23.266c-16.333-14.134-30.521-33.681-40.312-57.481
					C28.112,112.782,25.08,89.505,27.641,70.057c2.312-17.549,9.078-31.112,18.318-40.708c8.124-8.438,18.037-13.675,28.53-16.146
					c9.255-2.18,18.999-2.216,28.599-0.438c8.617,1.597,17.049,5.085,24.938,9.764c7.314,4.337,14.354,9.811,20.835,15.968
					c6.185,5.875,12.025,12.528,17.272,19.653c5.15,6.994,9.878,14.644,13.935,22.753c4.107,8.213,7.438,16.718,9.97,25.233
					c2.643,8.889,4.491,18.042,5.425,27.063c1.002,9.681,0.975,19.456-0.32,28.735C193.716,172.163,190.714,182.028,185.726,190.583
					 M95.531,4.322C83.928,1.706,72.542,1.557,61.842,3.988c-12.308,2.797-23.727,9.013-33.24,18.752
					C17.636,33.968,9.427,49.639,5.749,69.186c-4.125,21.922-2.332,47.432,7.014,73.971c9.73,27.63,25.708,50.954,45.091,67.936
					c18.283,16.019,38.096,25.063,57.028,27.411c16.761,2.079,32.062-1.199,44.857-8.838c11.063-6.604,20.054-16.355,26.646-28.565
					c5.707-10.57,9.158-22.162,10.825-33.848c1.492-10.466,1.594-21.275,0.551-31.879c-0.964-9.803-2.931-19.698-5.797-29.336
					c-2.733-9.193-6.366-18.429-10.911-27.483c-4.481-8.93-9.59-17.165-15.117-24.606c-5.644-7.599-11.912-14.623-18.592-20.838
					c-7.043-6.552-14.769-12.413-22.939-17.188C115.504,10.718,105.783,6.633,95.531,4.322"/>
			</g>
		</g>
	</g>
</g>
<g>
	<g enable-background="new    ">
		<defs>
			<polygon id="SVGID_4_" enable-background="new    " points="117.141,288.986 6.754,2.324 151.747,25.768 211.082,145.297 			"/>
		</defs>
		<clipPath id="SVGID_2_">
			<use xlink:href="#SVGID_4_"  overflow="visible"/>
		</clipPath>
		<g clip-path="url(#SVGID_2_)">
			<path fill="#F7912F" d="M181.979,175.391c-4.937,6.794-11.304,11.402-18.76,13.606c-8.182,2.419-17.523,1.9-27.369-1.724
				c-10.575-3.893-21.372-11.229-31.346-21.787c-10.295-10.896-19.203-24.68-25.579-40.465c-6.225-15.41-9.108-30.449-9.084-43.928
				c0.023-12.595,2.587-23.4,7.076-31.86c4.103-7.732,9.751-13.383,16.466-16.762c6.107-3.073,13.079-4.257,20.63-3.471
				c6.907,0.719,13.762,3.037,20.267,6.471c6.102,3.221,12.028,7.493,17.544,12.498c5.3,4.808,10.343,10.402,14.928,16.574
				c4.513,6.076,8.697,12.867,12.355,20.26c3.703,7.482,6.621,15.08,8.76,22.567c2.22,7.771,3.653,15.607,4.229,23.188
				c0.61,8.049,0.267,15.977-1.182,23.318C189.343,161.835,186.446,169.242,181.979,175.391 M105.951,18.364
				c-9.114-1.474-17.727-0.735-25.479,2.199c-8.66,3.278-16.228,9.288-22.043,17.917c-6.478,9.61-10.663,22.287-11.61,37.437
				c-1.029,16.465,1.802,35.134,9.227,54.414c7.647,19.857,18.888,37.076,32.107,50.413c12.708,12.82,26.491,21.288,39.901,25.236
				c12.286,3.616,23.801,3.299,33.734-0.575c8.891-3.467,16.354-9.724,22.026-18.4c5.052-7.729,8.247-16.727,9.91-26.176
				c1.517-8.62,1.791-17.782,1.011-26.971c-0.73-8.592-2.397-17.398-4.916-26.077c-2.417-8.328-5.678-16.751-9.792-25.039
				c-4.062-8.181-8.698-15.714-13.704-22.486c-5.094-6.891-10.717-13.191-16.657-18.677c-6.213-5.737-12.938-10.736-19.933-14.641
				C122.216,22.74,114.186,19.695,105.951,18.364"/>
		</g>
	</g>
</g>
<g>
	<g>
		<defs>
			<polygon id="SVGID_5_" points="134.665,212.56 61.854,36.426 157.247,40.799 203.632,135.632 			"/>
		</defs>
		<clipPath id="SVGID_6_">
			<use xlink:href="#SVGID_5_"  overflow="visible"/>
		</clipPath>
		<path clip-path="url(#SVGID_6_)" fill="#F7912F" d="M178.464,152.262c-3.788,3.813-8.434,6.013-13.655,6.577
			c-5.556,0.601-11.686-0.659-17.971-3.736c-6.579-3.221-13.18-8.357-19.248-15.196c-6.188-6.975-11.631-15.502-15.743-25.135
			c-4.052-9.494-6.291-18.846-6.886-27.418c-0.57-8.211,0.382-15.521,2.596-21.525c2.085-5.657,5.265-10.085,9.302-13.057
			c3.78-2.783,8.297-4.277,13.385-4.338c4.772-0.058,9.645,1.153,14.374,3.308c4.509,2.054,8.957,4.998,13.145,8.596
			c4.063,3.491,7.949,7.657,11.486,12.334c3.495,4.622,6.715,9.831,9.492,15.523c2.801,5.743,4.945,11.554,6.438,17.234
			c1.536,5.844,2.411,11.653,2.587,17.167c0.185,5.766-0.392,11.294-1.807,16.235C184.46,144.068,181.998,148.706,178.464,152.262
			 M122.624,39.212c-6.329-0.291-12.074,1.106-17.009,4.066c-5.341,3.203-9.712,8.224-12.767,14.838
			c-3.287,7.115-5.002,15.967-4.735,26.079c0.282,10.67,2.76,22.43,7.719,34.424c5.05,12.218,11.968,22.978,19.937,31.663
			c7.775,8.473,16.256,14.646,24.68,18.285c7.958,3.438,15.658,4.519,22.562,3.271c6.4-1.157,12.02-4.304,16.535-9.339
			c4.156-4.637,7-10.461,8.691-16.893c1.579-6.002,2.177-12.609,1.899-19.417c-0.264-6.464-1.321-13.215-3.121-19.962
			c-1.743-6.531-4.216-13.189-7.43-19.761c-3.182-6.504-6.867-12.47-10.872-17.788c-4.06-5.392-8.538-10.237-13.244-14.35
			c-4.874-4.26-10.091-7.821-15.434-10.41C134.388,41.183,128.494,39.48,122.624,39.212"/>
	</g>
</g>
<g>
	<path d="M199.483,59.62c7.834,0,14.69,1.57,20.566,4.712c5.875,3.142,10.588,7.689,14.137,13.643
		c3.549,5.954,5.324,12.441,5.324,19.46c0,10.86-4.054,20.489-12.159,28.885c-8.107,8.397-18.151,12.595-30.136,12.595
		c-10.899,0-20.217-3.47-27.954-10.414c-7.738-6.942-11.606-16.328-11.606-28.157c0-11.17,4.004-20.75,12.014-28.74
		C177.676,63.614,187.615,59.62,199.483,59.62z M219.788,99.18c0-11.751-1.998-20.595-5.993-26.528
		c-3.995-5.935-9.057-8.901-15.184-8.901c-6.09,0-11.132,2.977-15.126,8.93c-3.995,5.955-5.992,14.788-5.992,26.5
		c0,11.249,1.91,19.975,5.73,26.18c3.82,6.206,8.949,9.308,15.388,9.308c5.701,0,10.655-2.802,14.864-8.407
		C217.683,120.657,219.788,111.63,219.788,99.18z"/>
	<path d="M262.688,87.486c0.193,3.996,0.291,9.445,0.291,16.348c0,10.472,0.096,17.172,0.291,20.1
		c0.193,2.929,0.959,5.129,2.297,6.603c1.339,1.475,2.86,2.211,4.567,2.211c2.016,0,4.063-0.756,6.138-2.269
		c2.074-1.513,3.607-3.49,4.596-5.934c0.989-2.443,1.483-6.438,1.483-11.984l0.116-12.857c0-3.413-0.185-5.663-0.553-6.749
		c-0.369-1.085-1.62-1.667-3.752-1.745c-2.327-0.117-3.49-0.718-3.49-1.804c0-0.659,0.28-1.076,0.843-1.25
		c0.563-0.175,2.045-0.262,4.451-0.262c5.39,0,10.414-0.135,15.068-0.408c0.154,1.513,0.232,9.794,0.232,24.842
		c0,12.101,0.117,18.704,0.349,19.809c0.233,1.105,1.493,1.755,3.782,1.949c1.357,0.156,2.036,0.718,2.036,1.687
		c0,1.125-0.777,1.688-2.327,1.688c-0.311,0-0.796-0.02-1.455-0.058c-1.086-0.078-2.366-0.117-3.84-0.117
		c-5.159,0-8.009,0.02-8.552,0.058c-0.621,0.039-1.145,0.059-1.571,0.059c-0.737,0-1.192-0.125-1.367-0.378
		c-0.174-0.251-0.262-0.998-0.262-2.24c0-2.016,0.135-4.053,0.407-6.109c-2.676,3.258-5.498,5.702-8.465,7.331
		c-2.967,1.629-6.079,2.444-9.337,2.444c-9.89,0-14.835-5.546-14.835-16.639v-17.977c0-6.205-0.224-9.841-0.669-10.908
		c-0.446-1.066-1.62-1.735-3.519-2.007c-1.708-0.233-2.56-0.737-2.56-1.513c0-1.047,0.756-1.57,2.269-1.57
		C255.745,87.835,261.524,87.719,262.688,87.486z"/>
	<path d="M327.405,87.312c2.366-0.116,5.992-0.174,10.88-0.174c2.211,0,4.033,0.195,5.469,0.582
		c-0.583,2.909-1.097,4.46-1.543,4.654c-0.446,0.194-5.381,0.563-14.806,1.105l-0.641,25.656c0,3.646,0.185,6.322,0.554,8.028
		c0.369,1.707,1.211,3.141,2.53,4.305c1.318,1.164,3.025,1.745,5.119,1.745c1.785,0,4.325-0.95,7.622-2.851
		c0.504-0.271,0.93-0.408,1.279-0.408c0.737,0,1.106,0.388,1.106,1.164c0,1.126-1.57,2.658-4.714,4.596
		c-3.141,1.939-6.826,2.909-11.054,2.909c-5.003,0-8.929-1.222-11.78-3.666c-2.851-2.443-4.276-7.601-4.276-15.475
		c0-8.688,0.154-17.356,0.466-26.005c-3.839,0-6.556-0.097-8.145-0.291c-1.591-0.194-2.385-0.756-2.385-1.688
		c0-0.775,0.911-1.396,2.734-1.861c3.608-0.814,6.835-2.288,9.687-4.421c2.85-2.133,5.284-5.527,7.301-10.181
		c0.814-1.9,1.368-3.055,1.657-3.461c0.292-0.408,0.708-0.611,1.251-0.611c1.125,0,1.688,0.931,1.688,2.792V87.312z"/>
	<path d="M407.975,120.51c1.44-3.223,3.347-8.299,5.72-15.23c2.374-6.932,3.561-10.707,3.561-11.329
		c0-1.593-1.203-2.546-3.607-2.857c-1.823-0.276-2.733-0.926-2.733-1.952c0-1.104,0.717-1.656,2.152-1.656
		c0.581,0,1.298,0.045,2.152,0.133c1.628,0.222,3.025,0.333,4.188,0.333c1.201,0,2.754-0.088,4.654-0.267
		c1.357-0.133,2.133-0.199,2.327-0.199c1.279,0,1.92,0.582,1.92,1.746c0,0.737-0.66,1.3-1.979,1.688
		c-1.437,0.43-2.689,1.23-3.757,2.402c-1.067,1.173-2.241,3.732-3.521,7.677l-11.87,32.267c-1.203,3.689-2.348,5.534-3.433,5.534
		c-0.854,0-1.69-0.953-2.506-2.855l-12.2-26.617l-1.342-3.087l-8.236,20c-3.054,7.249-4.794,11.134-5.22,11.657
		c-0.425,0.522-0.851,0.784-1.275,0.784c-0.819,0-1.658-0.971-2.516-2.912c-1.438-3.3-3.187-7.067-5.245-11.299l-12.82-26.209
		c-1.59-3.211-2.755-5.197-3.491-5.96c-0.737-0.763-1.727-1.263-2.967-1.498c-1.475-0.271-2.212-0.873-2.212-1.803
		c0-1.047,0.795-1.571,2.386-1.571c0.969,0,2.715,0.108,5.235,0.324c1.899,0.172,3.665,0.258,5.294,0.258
		c2.056,0,5.042-0.151,8.96-0.453c1.124-0.085,2.017-0.128,2.676-0.128c1.746,0,2.618,0.582,2.618,1.745
		c0,0.97-0.854,1.533-2.56,1.687c-2.057,0.199-3.084,1.074-3.084,2.625c0,1.398,4.14,10.717,12.421,27.957
		c4.589-10.755,6.883-17.434,6.883-20.036c0-1.953-0.552-4.042-1.655-6.269c-1.104-2.226-2.625-3.632-4.561-4.218
		c-1.279-0.387-1.917-1.027-1.917-1.92c0-1.047,0.717-1.571,2.152-1.571c0.465,0,1.26,0.043,2.385,0.131
		c3.18,0.262,6.67,0.393,10.473,0.393c1.55,0,3.684-0.131,6.399-0.393c1.084-0.087,1.958-0.131,2.617-0.131
		c1.357,0,2.036,0.543,2.036,1.628c0,0.931-0.698,1.513-2.094,1.746c-2.328,0.358-3.49,1.291-3.49,2.799
		c0,1.321,0.407,2.894,1.225,4.718C401.423,105.736,404.708,113.132,407.975,120.51z"/>
	<path d="M481.564,111.164c0,7.137-2.657,13.479-7.971,19.024c-5.313,5.546-12.063,8.319-20.245,8.319
		c-7.524,0-13.847-2.327-18.966-6.981c-5.119-4.654-7.679-10.859-7.679-18.617c0-7.874,2.704-14.244,8.115-19.111
		c5.41-4.867,11.993-7.301,19.751-7.301c7.872,0,14.341,2.298,19.401,6.894C479.033,97.987,481.564,103.912,481.564,111.164z
		 M465.507,115.153c0-6.369-1.057-12.126-3.17-17.272c-2.115-5.146-5.148-7.719-9.105-7.719c-3.49,0-6.187,1.797-8.086,5.389
		c-1.901,3.592-2.851,8.631-2.851,15.116c0,7.068,1.076,12.866,3.229,17.389c2.152,4.524,5.109,6.786,8.872,6.786
		c3.685,0,6.458-1.805,8.319-5.418C464.576,125.813,465.507,121.056,465.507,115.153z"/>
	<path d="M505.208,98.074c1.939-3.917,4.169-6.845,6.691-8.784c2.52-1.939,5.331-2.91,8.436-2.91c2.946,0,5.303,0.854,7.067,2.56
		c1.765,1.707,2.647,3.84,2.647,6.399c0,2.017-0.631,3.734-1.891,5.149c-1.26,1.416-2.803,2.124-4.625,2.124
		c-1.358,0-2.482-0.35-3.374-1.047c-0.893-0.698-1.843-1.938-2.851-3.723c-1.396-2.56-2.618-3.84-3.666-3.84
		c-1.436,0-3.064,1.453-4.886,4.357c-1.823,2.905-2.734,8.541-2.734,16.906c0,10.574,0.357,16.45,1.076,17.632
		c0.717,1.181,2.297,1.771,4.741,1.771c2.132,0,3.2,0.582,3.2,1.745c0,1.085-1.048,1.629-3.142,1.629
		c-1.164,0-2.852-0.106-5.062-0.317c-2.018-0.177-3.918-0.265-5.701-0.265c-3.84,0-7.642,0.135-11.403,0.407
		c-1.591,0.116-2.521,0.174-2.793,0.174c-1.629,0-2.442-0.611-2.442-1.833c0-1.064,0.949-1.636,2.85-1.715
		c1.862-0.077,3.161-0.513,3.898-1.307c0.736-0.793,1.105-2.527,1.105-5.2l0.233-14.525c0-2.944-0.117-6.604-0.351-10.98
		c-0.231-4.377-0.446-6.982-0.64-7.815c-0.194-0.832-0.688-1.578-1.482-2.236c-0.797-0.658-1.872-1.046-3.229-1.163
		c-1.396-0.154-2.279-0.339-2.646-0.553c-0.369-0.212-0.554-0.649-0.554-1.309c0-1.047,0.97-1.59,2.909-1.629
		c3.567-0.038,9.637-0.503,18.21-1.396L505.208,98.074z"/>
</g>
<polygon fill="#F7912F" points="528.309,55.064 539.833,55.064 558.688,90.919 532.895,133.046 526.17,133.046 522.028,137.203 
	535.547,137.203 562.02,95.916 581.789,137.203 611.775,137.203 607.079,130.686 596.365,130.719 571.256,84.207 595.343,49.736 
	600.773,49.736 603.724,44.633 591.781,44.633 568.117,78.682 551.364,46.587 534.405,46.587 "/>
<g>
	<path d="M206.929,160.7l2.365-0.208c0.111,0.948,0.372,1.727,0.781,2.333c0.409,0.607,1.044,1.099,1.906,1.474
		c0.862,0.374,1.83,0.562,2.908,0.562c0.956,0,1.8-0.142,2.532-0.426s1.277-0.674,1.635-1.17c0.357-0.495,0.536-1.035,0.536-1.621
		c0-0.595-0.173-1.113-0.517-1.557c-0.345-0.445-0.914-0.817-1.706-1.119c-0.509-0.196-1.633-0.506-3.373-0.923
		c-1.74-0.418-2.959-0.812-3.657-1.184c-0.904-0.474-1.578-1.061-2.021-1.763c-0.444-0.702-0.666-1.488-0.666-2.358
		c0-0.957,0.271-1.849,0.813-2.682c0.543-0.831,1.335-1.462,2.378-1.893c1.042-0.432,2.2-0.646,3.476-0.646
		c1.404,0,2.643,0.227,3.715,0.678c1.072,0.452,1.897,1.118,2.474,1.996c0.578,0.879,0.887,1.874,0.93,2.985l-2.403,0.18
		c-0.129-1.196-0.566-2.101-1.311-2.713c-0.746-0.611-1.846-0.917-3.302-0.917c-1.516,0-2.621,0.278-3.314,0.834
		s-1.04,1.225-1.04,2.009c0,0.681,0.246,1.241,0.736,1.68c0.482,0.439,1.742,0.89,3.78,1.35c2.037,0.462,3.436,0.864,4.193,1.21
		c1.103,0.507,1.917,1.15,2.442,1.93c0.526,0.781,0.789,1.68,0.789,2.695c0,1.009-0.289,1.958-0.866,2.849
		c-0.577,0.892-1.406,1.586-2.487,2.082c-1.081,0.494-2.298,0.742-3.65,0.742c-1.714,0-3.151-0.25-4.31-0.75
		c-1.159-0.499-2.067-1.251-2.727-2.254C207.31,163.102,206.963,161.966,206.929,160.7z"/>
	<path d="M224.429,159.924c0-2.539,0.706-4.423,2.119-5.646c1.18-1.016,2.619-1.524,4.315-1.524c1.887,0,3.429,0.619,4.626,1.854
		c1.197,1.236,1.796,2.944,1.796,5.124c0,1.766-0.265,3.154-0.795,4.167s-1.3,1.798-2.313,2.357
		c-1.012,0.561-2.117,0.841-3.314,0.841c-1.92,0-3.474-0.616-4.658-1.849C225.021,164.017,224.429,162.241,224.429,159.924z
		 M226.819,159.924c0,1.758,0.383,3.073,1.149,3.948c0.767,0.874,1.731,1.312,2.895,1.312c1.154,0,2.115-0.439,2.882-1.318
		c0.767-0.879,1.15-2.218,1.15-4.019c0-1.696-0.385-2.982-1.156-3.856s-1.729-1.312-2.875-1.312c-1.163,0-2.128,0.435-2.895,1.305
		C227.202,156.853,226.819,158.168,226.819,159.924z"/>
	<path d="M240.119,166.786v-18.943h2.326v18.943H240.119z"/>
	<path d="M255.202,166.786v-2.017c-1.068,1.552-2.52,2.327-4.355,2.327c-0.81,0-1.566-0.155-2.268-0.466
		c-0.702-0.31-1.223-0.699-1.563-1.17c-0.341-0.469-0.58-1.044-0.718-1.725c-0.095-0.457-0.142-1.18-0.142-2.171v-8.502h2.326v7.61
		c0,1.215,0.047,2.032,0.142,2.455c0.146,0.612,0.457,1.092,0.931,1.441c0.473,0.349,1.059,0.522,1.757,0.522
		s1.352-0.178,1.964-0.536c0.612-0.356,1.044-0.844,1.298-1.46c0.254-0.616,0.382-1.509,0.382-2.681v-7.353h2.326v13.723H255.202z"
		/>
	<path d="M266.164,164.705l0.336,2.056c-0.655,0.138-1.241,0.206-1.758,0.206c-0.844,0-1.499-0.133-1.964-0.401
		c-0.465-0.266-0.792-0.616-0.982-1.052c-0.189-0.436-0.284-1.351-0.284-2.746v-7.896h-1.705v-1.809h1.705v-3.398l2.313-1.396v4.794
		h2.339v1.809h-2.339v8.024c0,0.664,0.041,1.091,0.123,1.279c0.082,0.189,0.215,0.341,0.4,0.452s0.45,0.168,0.795,0.168
		C265.401,164.796,265.741,164.767,266.164,164.705z"/>
	<path d="M268.61,150.519v-2.676h2.327v2.676H268.61z M268.61,166.786v-13.723h2.327v13.723H268.61z"/>
	<path d="M273.768,159.924c0-2.539,0.707-4.423,2.119-5.646c1.181-1.016,2.619-1.524,4.317-1.524c1.886,0,3.428,0.619,4.625,1.854
		c1.198,1.236,1.796,2.944,1.796,5.124c0,1.766-0.263,3.154-0.794,4.167c-0.53,1.013-1.3,1.798-2.313,2.357
		c-1.013,0.561-2.117,0.841-3.314,0.841c-1.921,0-3.475-0.616-4.658-1.849C274.362,164.017,273.768,162.241,273.768,159.924z
		 M276.159,159.924c0,1.758,0.384,3.073,1.15,3.948c0.767,0.874,1.732,1.312,2.895,1.312c1.154,0,2.115-0.439,2.881-1.318
		c0.768-0.879,1.15-2.218,1.15-4.019c0-1.696-0.386-2.982-1.157-3.856c-0.771-0.874-1.729-1.312-2.874-1.312
		c-1.163,0-2.128,0.435-2.895,1.305C276.542,156.853,276.159,158.168,276.159,159.924z"/>
	<path d="M289.511,166.786v-13.723h2.093v1.951c1.007-1.509,2.463-2.262,4.367-2.262c0.828,0,1.588,0.148,2.281,0.446
		c0.694,0.296,1.212,0.688,1.558,1.169c0.345,0.483,0.585,1.056,0.723,1.719c0.086,0.432,0.13,1.185,0.13,2.261v8.438h-2.326v-8.348
		c0-0.947-0.091-1.656-0.272-2.126c-0.18-0.469-0.502-0.844-0.962-1.124c-0.46-0.279-1.002-0.419-1.621-0.419
		c-0.991,0-1.847,0.313-2.565,0.942c-0.72,0.629-1.079,1.822-1.079,3.58v7.494H289.511z"/>
	<path d="M303.457,162.689l2.3-0.361c0.129,0.922,0.489,1.628,1.08,2.119c0.589,0.491,1.414,0.736,2.474,0.736
		c1.068,0,1.86-0.218,2.379-0.653c0.516-0.435,0.773-0.944,0.773-1.531c0-0.524-0.229-0.937-0.685-1.24
		c-0.319-0.205-1.11-0.469-2.377-0.787c-1.706-0.431-2.888-0.803-3.547-1.119c-0.66-0.313-1.16-0.749-1.5-1.305
		c-0.341-0.556-0.511-1.168-0.511-1.842c0-0.61,0.14-1.177,0.421-1.698c0.28-0.521,0.661-0.954,1.144-1.299
		c0.361-0.267,0.853-0.494,1.479-0.679c0.623-0.185,1.295-0.277,2.009-0.277c1.078,0,2.022,0.155,2.836,0.466
		c0.814,0.31,1.417,0.73,1.804,1.26c0.388,0.529,0.654,1.238,0.801,2.125l-2.273,0.311c-0.104-0.706-0.404-1.258-0.899-1.654
		c-0.494-0.396-1.194-0.595-2.099-0.595c-1.068,0-1.831,0.178-2.288,0.531c-0.456,0.352-0.685,0.766-0.685,1.24
		c0,0.302,0.095,0.571,0.284,0.813c0.189,0.249,0.487,0.457,0.892,0.62c0.232,0.085,0.919,0.284,2.055,0.594
		c1.646,0.439,2.792,0.8,3.443,1.079c0.65,0.28,1.161,0.688,1.531,1.222c0.37,0.534,0.557,1.197,0.557,1.989
		c0,0.775-0.227,1.507-0.679,2.191c-0.452,0.684-1.105,1.215-1.957,1.589c-0.854,0.375-1.818,0.563-2.896,0.563
		c-1.782,0-3.142-0.371-4.077-1.112C304.312,165.243,303.715,164.146,303.457,162.689z"/>
	<path d="M330.367,164.705l0.336,2.056c-0.654,0.138-1.24,0.206-1.757,0.206c-0.846,0-1.499-0.133-1.964-0.401
		c-0.465-0.266-0.793-0.616-0.983-1.052c-0.189-0.436-0.283-1.351-0.283-2.746v-7.896h-1.706v-1.809h1.706v-3.398l2.312-1.396v4.794
		h2.34v1.809h-2.34v8.024c0,0.664,0.042,1.091,0.124,1.279c0.082,0.189,0.215,0.341,0.4,0.452c0.185,0.111,0.45,0.168,0.794,0.168
		C329.604,164.796,329.944,164.767,330.367,164.705z"/>
	<path d="M332.801,166.786v-18.943h2.324v6.797c1.087-1.257,2.456-1.887,4.11-1.887c1.017,0,1.899,0.201,2.649,0.601
		c0.749,0.401,1.285,0.954,1.607,1.661c0.322,0.706,0.485,1.731,0.485,3.075v8.696h-2.326v-8.696c0-1.164-0.253-2.009-0.757-2.539
		s-1.216-0.795-2.138-0.795c-0.689,0-1.337,0.179-1.945,0.536c-0.606,0.357-1.04,0.843-1.298,1.454
		c-0.259,0.611-0.389,1.456-0.389,2.532v7.508H332.801z"/>
	<path d="M356.632,165.093c-0.862,0.732-1.691,1.249-2.487,1.551c-0.797,0.301-1.652,0.453-2.564,0.453
		c-1.509,0-2.668-0.369-3.477-1.106c-0.81-0.735-1.216-1.678-1.216-2.822c0-0.672,0.153-1.286,0.46-1.841
		c0.306-0.556,0.705-1.002,1.201-1.339c0.496-0.335,1.054-0.589,1.674-0.761c0.456-0.122,1.146-0.236,2.067-0.35
		c1.878-0.224,3.26-0.492,4.148-0.801c0.007-0.318,0.012-0.521,0.012-0.607c0-0.947-0.22-1.615-0.658-2.004
		c-0.596-0.524-1.478-0.787-2.649-0.787c-1.094,0-1.901,0.191-2.422,0.574c-0.522,0.384-0.908,1.062-1.157,2.035l-2.274-0.31
		c0.207-0.974,0.547-1.76,1.021-2.357c0.474-0.599,1.159-1.061,2.056-1.383c0.896-0.324,1.932-0.485,3.114-0.485
		c1.172,0,2.123,0.138,2.855,0.414c0.731,0.275,1.271,0.621,1.614,1.039c0.345,0.419,0.587,0.946,0.725,1.584
		c0.077,0.396,0.115,1.111,0.115,2.145v3.102c0,2.162,0.05,3.529,0.149,4.103s0.294,1.122,0.587,1.647h-2.429
		C356.855,166.305,356.7,165.739,356.632,165.093z M356.438,159.898c-0.845,0.345-2.111,0.638-3.8,0.879
		c-0.956,0.139-1.632,0.293-2.029,0.465c-0.396,0.174-0.702,0.425-0.916,0.757c-0.216,0.331-0.324,0.699-0.324,1.104
		c0,0.62,0.235,1.136,0.705,1.551c0.469,0.413,1.157,0.62,2.061,0.62c0.896,0,1.692-0.196,2.391-0.588
		c0.698-0.393,1.211-0.928,1.537-1.608c0.25-0.526,0.376-1.302,0.376-2.326V159.898z"/>
	<path d="M367.632,164.705l0.336,2.056c-0.654,0.138-1.24,0.206-1.757,0.206c-0.845,0-1.499-0.133-1.964-0.401
		c-0.465-0.266-0.793-0.616-0.982-1.052c-0.19-0.436-0.284-1.351-0.284-2.746v-7.896h-1.706v-1.809h1.706v-3.398l2.313-1.396v4.794
		h2.339v1.809h-2.339v8.024c0,0.664,0.041,1.091,0.123,1.279c0.082,0.189,0.216,0.341,0.401,0.452
		c0.184,0.111,0.449,0.168,0.793,0.168C366.869,164.796,367.211,164.767,367.632,164.705z"/>
	<path d="M377.575,166.786v-13.723h2.082v1.926c0.431-0.673,1.004-1.213,1.719-1.622c0.714-0.409,1.528-0.614,2.441-0.614
		c1.017,0,1.85,0.211,2.5,0.633c0.65,0.424,1.109,1.013,1.377,1.771c1.085-1.602,2.498-2.403,4.238-2.403
		c1.361,0,2.407,0.377,3.14,1.132c0.731,0.754,1.098,1.914,1.098,3.481v9.42h-2.313v-8.645c0-0.931-0.076-1.601-0.227-2.01
		c-0.151-0.409-0.425-0.739-0.82-0.988c-0.396-0.251-0.861-0.374-1.396-0.374c-0.965,0-1.766,0.32-2.403,0.962
		c-0.639,0.643-0.956,1.669-0.956,3.081v7.974h-2.325v-8.916c0-1.033-0.189-1.81-0.569-2.326c-0.379-0.518-0.999-0.774-1.86-0.774
		c-0.655,0-1.26,0.172-1.815,0.516c-0.557,0.346-0.959,0.85-1.21,1.513c-0.249,0.663-0.373,1.62-0.373,2.869v7.119H377.575z"/>
	<path d="M408.733,165.093c-0.861,0.732-1.69,1.249-2.487,1.551c-0.797,0.301-1.652,0.453-2.564,0.453
		c-1.508,0-2.667-0.369-3.477-1.106c-0.81-0.735-1.214-1.678-1.214-2.822c0-0.672,0.153-1.286,0.458-1.841
		c0.307-0.556,0.706-1.002,1.202-1.339c0.495-0.335,1.053-0.589,1.673-0.761c0.457-0.122,1.146-0.236,2.068-0.35
		c1.877-0.224,3.259-0.492,4.147-0.801c0.008-0.318,0.013-0.521,0.013-0.607c0-0.947-0.22-1.615-0.659-2.004
		c-0.595-0.524-1.478-0.787-2.649-0.787c-1.093,0-1.901,0.191-2.422,0.574c-0.521,0.384-0.907,1.062-1.157,2.035l-2.273-0.31
		c0.206-0.974,0.548-1.76,1.021-2.357c0.475-0.599,1.159-1.061,2.055-1.383c0.896-0.324,1.934-0.485,3.114-0.485
		c1.172,0,2.123,0.138,2.856,0.414c0.731,0.275,1.27,0.621,1.614,1.039c0.344,0.419,0.586,0.946,0.724,1.584
		c0.077,0.396,0.117,1.111,0.117,2.145v3.102c0,2.162,0.048,3.529,0.148,4.103c0.099,0.573,0.294,1.122,0.588,1.647h-2.431
		C408.958,166.305,408.803,165.739,408.733,165.093z M408.54,159.898c-0.845,0.345-2.111,0.638-3.8,0.879
		c-0.956,0.139-1.632,0.293-2.027,0.465c-0.397,0.174-0.703,0.425-0.918,0.757c-0.215,0.331-0.322,0.699-0.322,1.104
		c0,0.62,0.234,1.136,0.703,1.551c0.471,0.413,1.157,0.62,2.061,0.62c0.896,0,1.694-0.196,2.391-0.588
		c0.699-0.393,1.211-0.928,1.538-1.608c0.25-0.526,0.375-1.302,0.375-2.326V159.898z"/>
	<path d="M414.668,166.786v-18.943h2.326v10.803l5.503-5.582h3.013l-5.247,5.091l5.776,8.632h-2.868l-4.535-7.017l-1.642,1.576v5.44
		H414.668z"/>
	<path d="M437.44,162.367l2.403,0.298c-0.379,1.403-1.081,2.493-2.105,3.269c-1.026,0.774-2.336,1.163-3.929,1.163
		c-2.007,0-3.6-0.618-4.775-1.855c-1.176-1.235-1.763-2.969-1.763-5.2c0-2.309,0.594-4.101,1.782-5.376
		c1.189-1.274,2.731-1.912,4.627-1.912c1.835,0,3.333,0.625,4.496,1.874s1.744,3.007,1.744,5.271c0,0.138-0.005,0.345-0.012,0.62
		h-10.235c0.087,1.508,0.514,2.662,1.28,3.464c0.767,0.801,1.722,1.201,2.867,1.201c0.854,0,1.581-0.225,2.185-0.672
		C436.609,164.063,437.087,163.349,437.44,162.367z M429.803,158.606h7.663c-0.104-1.154-0.396-2.02-0.879-2.597
		c-0.741-0.896-1.701-1.345-2.881-1.345c-1.069,0-1.966,0.358-2.694,1.073C430.283,156.454,429.881,157.409,429.803,158.606z"/>
	<path d="M459.387,165.093c-0.86,0.732-1.69,1.249-2.486,1.551c-0.798,0.301-1.651,0.453-2.564,0.453
		c-1.508,0-2.667-0.369-3.477-1.106c-0.809-0.735-1.215-1.678-1.215-2.822c0-0.672,0.153-1.286,0.458-1.841
		c0.307-0.556,0.707-1.002,1.203-1.339c0.496-0.335,1.053-0.589,1.674-0.761c0.456-0.122,1.145-0.236,2.067-0.35
		c1.877-0.224,3.26-0.492,4.147-0.801c0.008-0.318,0.013-0.521,0.013-0.607c0-0.947-0.22-1.615-0.658-2.004
		c-0.596-0.524-1.479-0.787-2.649-0.787c-1.094,0-1.901,0.191-2.424,0.574c-0.521,0.384-0.906,1.062-1.155,2.035l-2.274-0.31
		c0.206-0.974,0.547-1.76,1.02-2.357c0.475-0.599,1.159-1.061,2.056-1.383c0.896-0.324,1.933-0.485,3.114-0.485
		c1.171,0,2.123,0.138,2.855,0.414c0.731,0.275,1.271,0.621,1.614,1.039c0.345,0.419,0.586,0.946,0.724,1.584
		c0.078,0.396,0.117,1.111,0.117,2.145v3.102c0,2.162,0.05,3.529,0.149,4.103c0.098,0.573,0.294,1.122,0.587,1.647h-2.429
		C459.611,166.305,459.456,165.739,459.387,165.093z M459.194,159.898c-0.845,0.345-2.11,0.638-3.799,0.879
		c-0.956,0.139-1.633,0.293-2.029,0.465c-0.396,0.174-0.703,0.425-0.917,0.757c-0.216,0.331-0.323,0.699-0.323,1.104
		c0,0.62,0.234,1.136,0.705,1.551c0.469,0.413,1.155,0.62,2.06,0.62c0.896,0,1.693-0.196,2.392-0.588
		c0.697-0.393,1.209-0.928,1.537-1.608c0.25-0.526,0.375-1.302,0.375-2.326V159.898z"/>
	<path d="M481.725,166.786v-1.73c-0.871,1.36-2.149,2.041-3.838,2.041c-1.094,0-2.1-0.302-3.018-0.905
		c-0.917-0.603-1.628-1.445-2.133-2.526c-0.503-1.08-0.754-2.322-0.754-3.728c0-1.37,0.228-2.612,0.684-3.729
		c0.457-1.115,1.142-1.97,2.055-2.565c0.913-0.594,1.935-0.891,3.063-0.891c0.828,0,1.563,0.175,2.209,0.523
		c0.646,0.349,1.171,0.803,1.577,1.363v-6.797h2.313v18.943H481.725z M474.373,159.938c0,1.758,0.369,3.071,1.111,3.94
		c0.74,0.87,1.614,1.306,2.622,1.306c1.017,0,1.879-0.415,2.59-1.247c0.712-0.831,1.067-2.099,1.067-3.806
		c0-1.878-0.361-3.255-1.086-4.135c-0.724-0.878-1.615-1.317-2.675-1.317c-1.034,0-1.897,0.422-2.59,1.267
		C474.719,156.788,474.373,158.12,474.373,159.938z"/>
	<path d="M487.71,150.519v-2.676h2.326v2.676H487.71z M487.71,166.786v-13.723h2.326v13.723H487.71z"/>
	<path d="M494.292,166.786v-11.914h-2.055v-1.809h2.055v-1.461c0-0.921,0.081-1.606,0.246-2.055
		c0.224-0.603,0.617-1.091,1.183-1.466c0.563-0.375,1.354-0.562,2.37-0.562c0.654,0,1.378,0.077,2.171,0.231l-0.35,2.029
		c-0.482-0.087-0.939-0.129-1.37-0.129c-0.705,0-1.205,0.15-1.498,0.451c-0.292,0.302-0.438,0.866-0.438,1.693v1.267h2.674v1.809
		h-2.674v11.914H494.292z"/>
	<path d="M501.324,166.786v-11.914h-2.055v-1.809h2.055v-1.461c0-0.921,0.082-1.606,0.246-2.055
		c0.224-0.603,0.617-1.091,1.183-1.466c0.564-0.375,1.354-0.562,2.371-0.562c0.653,0,1.377,0.077,2.17,0.231l-0.349,2.029
		c-0.482-0.087-0.938-0.129-1.37-0.129c-0.706,0-1.206,0.15-1.499,0.451c-0.292,0.302-0.438,0.866-0.438,1.693v1.267h2.675v1.809
		h-2.675v11.914H501.324z"/>
	<path d="M517.674,162.367l2.404,0.298c-0.38,1.403-1.082,2.493-2.106,3.269c-1.026,0.774-2.335,1.163-3.928,1.163
		c-2.008,0-3.601-0.618-4.776-1.855c-1.176-1.235-1.763-2.969-1.763-5.2c0-2.309,0.594-4.101,1.784-5.376
		c1.188-1.274,2.729-1.912,4.625-1.912c1.835,0,3.334,0.625,4.496,1.874c1.163,1.249,1.744,3.007,1.744,5.271
		c0,0.138-0.004,0.345-0.012,0.62h-10.235c0.087,1.508,0.514,2.662,1.28,3.464c0.767,0.801,1.723,1.201,2.868,1.201
		c0.853,0,1.581-0.225,2.185-0.672C516.843,164.063,517.32,163.349,517.674,162.367z M510.038,158.606h7.662
		c-0.104-1.154-0.397-2.02-0.878-2.597c-0.742-0.896-1.703-1.345-2.882-1.345c-1.069,0-1.967,0.358-2.695,1.073
		C510.517,156.454,510.115,157.409,510.038,158.606z"/>
	<path d="M523.131,166.786v-13.723h2.094v2.08c0.533-0.973,1.027-1.615,1.479-1.925c0.452-0.311,0.949-0.466,1.492-0.466
		c0.784,0,1.581,0.25,2.391,0.749l-0.802,2.159c-0.568-0.337-1.137-0.505-1.705-0.505c-0.509,0-0.965,0.153-1.369,0.459
		c-0.404,0.307-0.693,0.73-0.866,1.272c-0.258,0.827-0.388,1.731-0.388,2.714v7.185H523.131z"/>
	<path d="M541.522,162.367l2.404,0.298c-0.38,1.403-1.082,2.493-2.106,3.269c-1.026,0.774-2.335,1.163-3.929,1.163
		c-2.007,0-3.6-0.618-4.775-1.855c-1.176-1.235-1.763-2.969-1.763-5.2c0-2.309,0.594-4.101,1.783-5.376
		c1.188-1.274,2.729-1.912,4.625-1.912c1.835,0,3.334,0.625,4.497,1.874s1.744,3.007,1.744,5.271c0,0.138-0.004,0.345-0.012,0.62
		h-10.236c0.088,1.508,0.514,2.662,1.281,3.464c0.766,0.801,1.723,1.201,2.867,1.201c0.854,0,1.582-0.225,2.185-0.672
		C540.69,164.063,541.169,163.349,541.522,162.367z M533.886,158.606h7.662c-0.103-1.154-0.396-2.02-0.878-2.597
		c-0.742-0.896-1.702-1.345-2.881-1.345c-1.07,0-1.967,0.358-2.695,1.073C534.365,156.454,533.963,157.409,533.886,158.606z"/>
	<path d="M547.004,166.786v-13.723h2.093v1.951c1.008-1.509,2.464-2.262,4.368-2.262c0.827,0,1.588,0.148,2.281,0.446
		c0.693,0.296,1.212,0.688,1.558,1.169c0.343,0.483,0.585,1.056,0.723,1.719c0.086,0.432,0.13,1.185,0.13,2.261v8.438h-2.326v-8.348
		c0-0.947-0.092-1.656-0.272-2.126c-0.182-0.469-0.502-0.844-0.962-1.124c-0.462-0.279-1.002-0.419-1.621-0.419
		c-0.991,0-1.848,0.313-2.565,0.942c-0.719,0.629-1.079,1.822-1.079,3.58v7.494H547.004z"/>
	<path d="M570.835,161.759l2.287,0.299c-0.249,1.575-0.889,2.81-1.918,3.701s-2.294,1.338-3.793,1.338
		c-1.877,0-3.388-0.614-4.529-1.842c-1.141-1.228-1.711-2.987-1.711-5.278c0-1.482,0.245-2.778,0.735-3.89
		c0.492-1.11,1.239-1.945,2.243-2.5c1.002-0.557,2.095-0.834,3.274-0.834c1.491,0,2.709,0.377,3.656,1.132
		c0.948,0.754,1.557,1.823,1.822,3.211l-2.261,0.348c-0.215-0.921-0.597-1.615-1.143-2.08c-0.548-0.465-1.209-0.698-1.984-0.698
		c-1.171,0-2.122,0.421-2.855,1.261c-0.732,0.84-1.099,2.168-1.099,3.986c0,1.843,0.353,3.184,1.06,4.018
		c0.706,0.837,1.628,1.254,2.766,1.254c0.912,0,1.676-0.279,2.287-0.84C570.285,163.783,570.673,162.922,570.835,161.759z"/>
	<path d="M584.665,162.367l2.404,0.298c-0.38,1.403-1.082,2.493-2.106,3.269c-1.026,0.774-2.334,1.163-3.928,1.163
		c-2.008,0-3.601-0.618-4.776-1.855c-1.176-1.235-1.763-2.969-1.763-5.2c0-2.309,0.594-4.101,1.783-5.376
		c1.189-1.274,2.73-1.912,4.626-1.912c1.835,0,3.333,0.625,4.496,1.874s1.744,3.007,1.744,5.271c0,0.138-0.005,0.345-0.012,0.62
		h-10.235c0.087,1.508,0.514,2.662,1.281,3.464c0.766,0.801,1.721,1.201,2.867,1.201c0.854,0,1.582-0.225,2.185-0.672
		C583.834,164.063,584.313,163.349,584.665,162.367z M577.029,158.606h7.662c-0.104-1.154-0.397-2.02-0.879-2.597
		c-0.741-0.896-1.702-1.345-2.881-1.345c-1.069,0-1.967,0.358-2.695,1.073C577.508,156.454,577.106,157.409,577.029,158.606z"/>
	<path d="M590.807,166.786v-2.649h2.649v2.649H590.807z"/>
	<path d="M598.318,166.786v-2.649h2.649v2.649H598.318z"/>
	<path d="M605.829,166.786v-2.649h2.647v2.649H605.829z"/>
</g>
</svg>
